# xmcd CD database file
#
# Track frame offsets:
#	150
#	15329
#	33549
#	49318
#	69937
#	88087
#	106509
#	125690
#	150395
#	163501
#	185937
#
# Disc length: 2683 seconds
#
# Revision: 2
# Processed by: cddbd v1.5.2PL0 Copyright (c) Steve Scherf et al.
# Submitted via: CDex 1.78
#
DISCID=860a790b
DTITLE=Big Bad Voodoo Daddy - How Big Can You Get?: The Music Of Cab Calloway
DYEAR=2009
DGENRE=Jazz
TTITLE0=Come On With The "Come On"
TTITLE1=Calloway Boogie
TTITLE2=The Call Of The Jitterbug
TTITLE3=Hey Now, Hey Now
TTITLE4=The Jumpin' Jive
TTITLE5=How Big Can You Get?
TTITLE6=The Old Man Of The Mountain
TTITLE7=The Ghost Of Smokey Joe
TTITLE8=Reefer Man
TTITLE9=Minnie The Moocher
TTITLE10=Tarzan Of Harlem
EXTD=YEAR: 2009
EXTT0=
EXTT1=
EXTT2=
EXTT3=
EXTT4=
EXTT5=
EXTT6=
EXTT7=
EXTT8=
EXTT9=
EXTT10=
PLAYORDER=
